<svg width="2062" height="1700" viewBox="0 0 2062 1700" fill="none" xmlns="http://www.w3.org/2000/svg">
<path fill-rule="evenodd" clip-rule="evenodd" d="M1334.1 1699.41C1365.88 1699.41 1384.97 1664.13 1367.57 1637.52L720.559 648.108C704.77 623.964 669.393 623.964 653.604 648.108L6.5889 1637.52C-10.8084 1664.13 8.27889 1699.41 40.0663 1699.41H147.854C161.354 1699.41 173.943 1692.6 181.331 1681.31L653.604 959.108C669.393 934.964 704.77 934.964 720.559 959.108L1192.83 1681.31C1200.22 1692.6 1212.81 1699.41 1226.31 1699.41H1334.1Z" fill="white"/>
<path fill-rule="evenodd" clip-rule="evenodd" d="M2021.1 1699.41C2052.88 1699.41 2071.97 1664.13 2054.57 1637.52L1407.56 648.108C1391.77 623.964 1356.39 623.964 1340.6 648.108L693.589 1637.52C676.192 1664.13 695.279 1699.41 727.066 1699.41H834.854C848.354 1699.41 860.943 1692.6 868.331 1681.31L1340.6 959.108C1356.39 934.964 1391.77 934.964 1407.56 959.108L1879.83 1681.31C1887.22 1692.6 1899.81 1699.41 1913.31 1699.41H2021.1Z" fill="white"/>
<circle cx="1032" cy="400" r="400" fill="white"/>
</svg>
